<?xml version="1.0" encoding="UTF-8"?>
<svg version="1.1" xmlns="http://www.w3.org/2000/svg" width="1020" height="328">
<path d="M0 0 C58.08 0 116.16 0 176 0 C176 34 176 34 171.21484375 42.0703125 C168.16601562 44.7734375 168.16601562 44.7734375 164.9375 47.125 C163.88092626 48.00115925 162.83203842 48.88666929 161.79101562 49.78125 C159.78767753 51.48863638 157.76600286 53.13273013 155.69873047 54.76660156 C152.66141293 57.28020577 150.2090056 59.97763111 147.70141602 63.00341797 C143.68060562 67.72176886 139.08908421 71.94596754 134.671875 76.2890625 C130.5234873 80.39511971 126.57700023 84.57810169 122.7734375 89.00390625 C118.84285935 93.42797108 114.536629 97.49980444 110.31640625 101.64453125 C106.92081439 105.00328124 103.61582231 108.37852424 100.5 112 C96.05564748 117.16560744 91.17492912 121.87292293 86.31640625 126.64453125 C82.93247899 129.9917432 79.63801174 133.35386604 76.53515625 136.96484375 C72.57184358 141.57152927 68.26832389 145.80391671 63.9375 150.0625 C62.3816384 151.59253817 60.82820661 153.12505152 59.27734375 154.66015625 C58.59921631 155.32668213 57.92108887 155.99320801 57.22241211 156.67993164 C54.35658859 159.67168391 51.69615618 162.85448446 49 166 C113.845 166.495 113.845 166.495 180 167 C180 178.88 180 190.76 180 203 C118.62 203 57.24 203 -6 203 C-6 169 -6 169 1.0625 159.3125 C5.46875 155.5546875 5.46875 155.5546875 7.75 153.79589844 C11.48801977 150.81229672 14.7321668 147.36042504 18.0625 143.9375 C19.23990406 142.77894974 20.41825304 141.62135881 21.59765625 140.46484375 C23.97567483 138.09225909 26.2111615 135.64352403 28.40234375 133.09765625 C32.88566069 127.90450683 37.79193758 123.15961765 42.68359375 118.35546875 C46.0688171 115.00697477 49.36445258 111.64339331 52.46875 108.03125 C57.11946199 102.62579389 62.24689496 97.706912 67.328125 92.7109375 C71.4765127 88.60488029 75.42299977 84.42189831 79.2265625 79.99609375 C83.15714065 75.57202892 87.463371 71.50019556 91.68359375 67.35546875 C92.39644531 66.65035156 93.10929688 65.94523437 93.84375 65.21875 C94.47474609 64.59935547 95.10574219 63.97996094 95.75585938 63.34179688 C98.95495743 60.00348654 101.95527633 56.47968419 105 53 C110.28 47.72 115.56 42.44 121 37 C81.07 36.67 41.14 36.34 0 36 C0 24.12 0 12.24 0 0 Z " fill="#EBC557" transform="translate(546,5)"/>
<path d="M0 0 C13.2 0 26.4 0 40 0 C40.029729 4.97139038 40.029729 4.97139038 40.06005859 10.04321289 C40.12720722 21.03946706 40.20484216 32.03562962 40.28752708 43.03177738 C40.33730148 49.69344924 40.38363209 56.35509462 40.421875 63.0168457 C40.45896729 69.45546127 40.50538987 75.89395031 40.55806351 82.33245659 C40.57648101 84.77898356 40.59163467 87.22553752 40.60334396 89.67210579 C40.71988488 124.5149045 40.71988488 124.5149045 57.21484375 154.46875 C69.54658545 166.46071924 85.86079053 170.50363111 102.66723633 170.35595703 C119.99171939 169.81671946 134.15857499 164.31478013 146.1875 151.875 C157.74665149 138.33559547 160.11114863 120.65967954 160.20532227 103.53515625 C160.21522186 102.41232742 160.22512146 101.2894986 160.23532104 100.13264465 C160.26676302 96.44261746 160.29162476 92.75257742 160.31640625 89.0625 C160.33699073 86.49560218 160.35798759 83.92870763 160.37937927 81.36181641 C160.4288254 75.3095156 160.4741303 69.25719693 160.51740164 63.20484924 C160.56692984 56.30996446 160.62178975 49.41512525 160.67708123 42.52028465 C160.79062261 28.34689791 160.8968177 14.17346585 161 0 C174.2 0 187.4 0 201 0 C201.04535586 14.70053233 201.08210982 29.40102042 201.10362434 44.10160732 C201.11388472 50.92917342 201.12784324 57.75669258 201.15087891 64.58422852 C201.1731382 71.18486986 201.18460084 77.78547561 201.18975449 84.38615608 C201.19342277 86.89246445 201.20058521 89.39877045 201.21146011 91.90505791 C201.28104639 108.62156122 201.3059544 125.30134568 196.875 141.5625 C196.66327148 142.34568604 196.45154297 143.12887207 196.23339844 143.93579102 C192.4428923 157.12392683 185.82813217 168.54109386 177 179 C176.38769531 179.72574219 175.77539062 180.45148438 175.14453125 181.19921875 C159.18844805 198.51616192 133.43818758 207.00387274 110.4453125 208.12451172 C80.27682592 208.9796396 50.79037178 204.3950429 28 183 C13.98136158 169.32439515 6.59210292 152.81759529 2.6875 133.9375 C2.44821777 132.78882446 2.44821777 132.78882446 2.20410156 131.61694336 C-0.77324567 115.87085148 -0.13406166 99.63679642 -0.09765625 83.69140625 C-0.09578756 81.26903818 -0.09436579 78.84666973 -0.09336853 76.42430115 C-0.08957885 70.09678068 -0.0797795 63.76928373 -0.06866455 57.44177246 C-0.05837349 50.96574217 -0.05385454 44.48970802 -0.04882812 38.01367188 C-0.03815352 25.342436 -0.02058611 12.67122365 0 0 Z " fill="#EBC557" transform="translate(762,5)"/>
<path d="M0 0 C0.70850098 0.20898926 1.41700195 0.41797852 2.14697266 0.63330078 C24.97510125 7.6440097 42.0645806 22.83628091 53.25 43.8125 C63.7813113 66.12954473 64.44772594 89.49978539 64.29296875 113.765625 C64.28735914 116.38262689 64.28309551 118.99963198 64.28010559 121.61663818 C64.27088091 127.74301378 64.24640104 133.86922357 64.21605712 139.99552703 C64.18220962 146.98495152 64.16595186 153.97438508 64.15097082 160.96387148 C64.11983953 175.30935044 64.06495185 189.6546352 64 204 C50.8 204 37.6 204 24 204 C23.97812622 198.80141235 23.97812622 198.80141235 23.95581055 193.49780273 C23.90530524 182.00260502 23.83882919 170.5075298 23.76428509 159.01246548 C23.71950688 152.04812074 23.68005199 145.08382508 23.65356445 138.11938477 C23.6279514 131.38894752 23.5869278 124.65876017 23.53681374 117.92845345 C23.52022473 115.37028829 23.50866117 112.81208508 23.50238609 110.25387383 C23.44203074 87.89502279 22.96069526 64.86999635 6 48 C-9.99389593 34.42780877 -27.80679037 32.65584866 -48 34 C-61.54466835 35.64506761 -74.4775188 42.25026129 -83 53 C-97.0963364 73.1458935 -96.29758861 96.94918614 -96.4140625 120.50390625 C-96.4328127 122.92342256 -96.45238885 125.3429326 -96.4727478 127.76243591 C-96.52366849 134.0734382 -96.56350643 140.3844616 -96.60089111 146.69555664 C-96.64118453 153.15841724 -96.69216015 159.62119309 -96.7421875 166.08398438 C-96.8384713 178.72260209 -96.92203588 191.36125599 -97 204 C-109.87 204 -122.74 204 -136 204 C-136.09080004 188.32546806 -136.16426957 172.65114946 -136.20724869 156.97642994 C-136.22774786 149.69602254 -136.25562153 142.41579188 -136.30175781 135.13549805 C-136.34201825 128.77930127 -136.36752427 122.42323265 -136.37635398 116.06691188 C-136.38150371 112.71084495 -136.39553424 109.35543095 -136.42292023 105.9994297 C-136.67683862 73.55757905 -131.73419825 44.72668827 -108.625 20.3125 C-81.29245706 -5.858257 -35.12531959 -10.52066607 0 0 Z " fill="#EBC557" transform="translate(136,4)"/>
<path d="M0 0 C14.52 0 29.04 0 44 0 C50.9136233 16.88691645 57.72439694 33.80265306 64.37368774 50.7953186 C65.79783944 54.43475423 67.22410652 58.07335698 68.65112305 61.71166992 C70.09717192 65.3986566 71.5431731 69.08566157 72.98857117 72.77290344 C76.91617187 82.79152953 80.85865187 92.80420682 84.8125 102.8125 C85.10089752 103.54266327 85.38929504 104.27282654 85.68643188 105.02511597 C87.45909905 109.51287385 89.23269751 114.0002631 91.00671387 118.48748779 C92.09867057 121.24958671 93.19045957 124.01175188 94.28222656 126.77392578 C99.18707185 139.18304399 104.09303203 151.59172103 109 164 C115.27110263 148.83470756 121.36219258 133.60611467 127.3125 118.3125 C127.80411621 117.0491684 127.80411621 117.0491684 128.30566406 115.76031494 C128.99059449 114.00015417 129.67552074 112.23999178 130.36044312 110.47982788 C130.7120047 109.57640656 131.06356628 108.67298523 131.42578125 107.7421875 C131.78499664 106.8190274 132.14421204 105.89586731 132.51431274 104.94473267 C137.32019764 92.6001073 142.15798013 80.26798868 147 67.9375 C147.69861649 66.15830673 147.69861649 66.15830673 148.41134644 64.34317017 C156.85065527 42.85870983 165.39936337 21.42045349 174 0 C188.19 0 202.38 0 217 0 C208.18378935 22.33440031 198.91932987 44.47546151 189.66113281 66.62939453 C185.84648501 75.75900242 182.04257569 84.89308237 178.23828125 94.02700806 C176.16701288 98.99992045 174.09527377 103.97263669 172.0234375 108.9453125 C171.61212585 109.93253799 171.20081421 110.91976349 170.77703857 111.93690491 C168.21819531 118.07804758 165.65778614 124.21853515 163.09631348 130.35858154 C153.00499658 154.54843591 142.95783691 178.75483187 133 203 C116.83 203 100.66 203 84 203 C81.23625 196.296875 78.4725 189.59375 75.625 182.6875 C69.14319412 166.98354435 62.63144329 151.29270827 56.0625 135.625 C55.51456787 134.31810211 55.51456787 134.31810211 54.95556641 132.98480225 C54.58737793 132.10664856 54.21918945 131.22849487 53.83984375 130.32373047 C53.08982458 128.53483877 52.33982468 126.74593898 51.58984375 124.95703125 C51.21673065 124.06707458 50.84361755 123.17711792 50.459198 122.26019287 C45.99893253 111.61743918 41.56150275 100.96517628 37.125 90.3125 C36.71336609 89.3241214 36.30173218 88.3357428 35.87762451 87.31741333 C34.20505702 83.30124608 32.53255901 79.28504992 30.86022949 75.26878357 C27.75374949 67.80861407 24.64488293 60.34944165 21.53515625 52.890625 C20.18672789 49.65596306 18.83832587 46.42129014 17.4899292 43.18661499 C16.63705953 41.14085088 15.78407718 39.09513375 14.93096924 37.04946899 C12.28360703 30.70118357 9.63969208 24.35147856 7 18 C6.64536682 17.14750671 6.29073364 16.29501343 5.925354 15.41668701 C4.92351506 13.00647167 3.92419434 10.5952299 2.92578125 8.18359375 C2.62713669 7.46575211 2.32849213 6.74791046 2.02079773 6.00831604 C0 1.11504149 0 1.11504149 0 0 Z " fill="#EBC557" transform="translate(218,5)"/>
<path d="M0 0 C13.86 0 27.72 0 42 0 C41.15051558 5.0969065 39.88984082 9.07545206 37.8515625 13.71875 C37.52773087 14.47196533 37.20389923 15.22518066 36.87025452 16.0012207 C36.16545414 17.63944409 35.45780768 19.2764453 34.74765015 20.91235352 C32.79450664 25.41424125 30.86500392 29.9262555 28.93359375 34.4375 C28.52770523 35.38435669 28.12181671 36.33121338 27.70362854 37.3067627 C23.27123301 47.6659189 18.97424487 58.07992617 14.6875 68.5 C13.08640971 72.38821542 11.48471916 76.27618335 9.8828125 80.1640625 C9.48213058 81.13671051 9.08144867 82.10935852 8.66862488 83.11148071 C4.16196343 94.04461171 -0.3855074 104.96068083 -4.9375 115.875 C-5.34684784 116.85652039 -5.75619568 117.83804077 -6.177948 118.8493042 C-7.83873709 122.83119168 -9.49966539 126.81302099 -11.16093445 130.79470825 C-14.27644579 138.26260427 -17.38708608 145.73251935 -20.49609375 153.203125 C-21.85202254 156.46048556 -23.20800363 159.71782434 -24.56399536 162.97515869 C-25.42447738 165.04256695 -26.28473465 167.11006878 -27.14474487 169.17767334 C-34.80739666 187.59889063 -34.80739666 187.59889063 -38.5078125 196.3046875 C-39.20221436 197.94026611 -39.20221436 197.94026611 -39.91064453 199.60888672 C-41 202 -41 202 -42 203 C-44.73894085 203.08858646 -47.4525327 203.11523479 -50.19140625 203.09765625 C-51.01124496 203.0962413 -51.83108368 203.09482635 -52.67576599 203.09336853 C-55.30471382 203.08775289 -57.93357773 203.07519779 -60.5625 203.0625 C-62.34049357 203.05748701 -64.11848846 203.05292376 -65.89648438 203.04882812 C-70.26435545 203.03777839 -74.63216348 203.02050331 -79 203 C-78.38649279 196.82284377 -75.9471859 191.3965178 -73.64453125 185.6953125 C-73.19522751 184.56864166 -72.74592377 183.44197083 -72.28300476 182.28115845 C-71.3087643 179.83996489 -70.3324672 177.3997193 -69.35253906 174.96081543 C-67.79271322 171.07819802 -66.24114656 167.1923164 -64.69140625 163.30566406 C-64.429522 162.64893204 -64.16763775 161.99220001 -63.89781761 161.31556702 C-63.36398982 159.97686091 -62.83018345 158.63814627 -62.29639816 157.29942322 C-61.48271776 155.25948958 -60.66827426 153.21986201 -59.85366821 151.18029785 C-54.3480921 137.39148256 -48.9195744 123.57284004 -43.5 109.75 C-41.67352974 105.09491366 -39.84653433 100.44003349 -38.01953125 95.78515625 C-37.5855603 94.67927658 -37.15158936 93.57339691 -36.70446777 92.43400574 C-31.427779 78.98975799 -26.1253441 65.55570724 -20.81561279 52.1244812 C-18.72312582 46.83119666 -16.63302681 41.53697318 -14.5438385 36.24238586 C-12.95846642 32.22497808 -11.37232187 28.20787554 -9.78604126 24.19082642 C-9.01716864 22.24333239 -8.24858957 20.29572244 -7.48031616 18.34799194 C-6.41741066 15.6535348 -5.35337405 12.95952701 -4.2890625 10.265625 C-3.81055092 9.05145653 -3.81055092 9.05145653 -3.32237244 7.8127594 C-1.11404448 2.22808896 -1.11404448 2.22808896 0 0 Z " fill="#EBC557" transform="translate(477,5)"/>
<path d="M0 0 C3.3 0 6.6 0 10 0 C12.64 4.62 15.28 9.24 18 14 C21.52589424 10.47410576 23.34619364 6.71777277 25.59765625 2.30078125 C28 0 28 0 38 0 C38 11.55 38 23.1 38 35 C34.7 35 31.4 35 28 35 C27.67 30.05 27.34 25.1 27 20 C26.113125 21.485 25.22625 22.97 24.3125 24.5 C22.80078125 27.03125 22.80078125 27.03125 21 29 C18.5 29.59375 18.5 29.59375 16 29 C13.46383478 25.91919192 11.90004649 22.53497021 10 19 C9.67 24.28 9.34 29.56 9 35 C6.03 35 3.06 35 0 35 C0 23.45 0 11.9 0 0 Z " fill="#EBC557" transform="translate(419,293)"/>
<path d="M0 0 C8 0 8 0 10.42578125 2.23046875 C11.04839844 3.20628906 11.67101562 4.18210937 12.3125 5.1875 C12.94800781 6.15042969 13.58351563 7.11335938 14.23828125 8.10546875 C15.83603753 10.73060712 17.41888359 13.36480599 19 16 C19.33 10.72 19.66 5.44 20 0 C22.97 0 25.94 0 29 0 C29 11.55 29 23.1 29 35 C21 35 21 35 19.08203125 33.53125 C18.45361328 32.52578125 18.45361328 32.52578125 17.8125 31.5 C17.10673828 30.4171875 17.10673828 30.4171875 16.38671875 29.3125 C15.92910156 28.549375 15.47148438 27.78625 15 27 C14.51144531 26.236875 14.02289062 25.47375 13.51953125 24.6875 C12.32106425 22.80755177 11.15704525 20.90572159 10 19 C9.67 24.28 9.34 29.56 9 35 C6.03 35 3.06 35 0 35 C0 23.45 0 11.9 0 0 Z " fill="#EBC557" transform="translate(799,293)"/>
<path d="M0 0 C7 0 7 0 8.71264648 1.34521484 C9.28607788 2.26874756 9.28607788 2.26874756 9.87109375 3.2109375 C10.51401367 4.21253906 10.51401367 4.21253906 11.16992188 5.234375 C11.58822266 5.94078125 12.00652344 6.6471875 12.4375 7.375 C12.88287109 8.07367188 13.32824219 8.77234375 13.78710938 9.4921875 C17 14.62491599 17 14.62491599 17 17 C21.66812323 12.6393095 24.62462221 7.92235768 27.83984375 2.44921875 C28.90912109 1.23685547 28.90912109 1.23685547 30 0 C31.98 0 33.96 0 36 0 C36 11.55 36 23.1 36 35 C34.02 35 32.04 35 30 35 C29.67 28.07 29.34 21.14 29 14 C26.20294856 18.26842461 26.20294856 18.26842461 23.43652344 22.55664062 C22.359375 24.15625 22.359375 24.15625 20 27 C18.68 27 17.36 27 16 27 C14.20120697 24.66514282 12.74117897 22.51449361 11.25 20 C9.8475 17.69 8.445 15.38 7 13 C6.67 20.26 6.34 27.52 6 35 C4.02 35 2.04 35 0 35 C0 23.45 0 11.9 0 0 Z " fill="#EBC557" transform="translate(317,293)"/>
<path d="M0 0 C6 0 6 0 7.65917969 1.45288086 C8.07586914 2.11682861 8.49255859 2.78077637 8.921875 3.46484375 C9.38980469 4.18220703 9.85773438 4.89957031 10.33984375 5.63867188 C10.80519531 6.39728516 11.27054688 7.15589844 11.75 7.9375 C12.69957322 9.42804992 13.65253728 10.91644674 14.609375 12.40234375 C15.2276416 13.39995728 15.2276416 13.39995728 15.85839844 14.41772461 C16.92719966 16.15679928 16.92719966 16.15679928 19 17 C19.24234375 16.30519531 19.4846875 15.61039062 19.734375 14.89453125 C21.22236038 11.49145356 23.08407392 8.70432561 25.25 5.6875 C25.99765625 4.61886719 26.7453125 3.55023438 27.515625 2.44921875 C30 0 30 0 36 0 C36 11.55 36 23.1 36 35 C34.02 35 32.04 35 30 35 C29.67 27.74 29.34 20.48 29 13 C26.03 17.62 23.06 22.24 20 27 C15 26 15 26 12.76171875 23.27734375 C9.88085938 18.63867188 9.88085938 18.63867188 7 14 C6.67 20.93 6.34 27.86 6 35 C4.02 35 2.04 35 0 35 C0 23.45 0 11.9 0 0 Z " fill="#EBC557" transform="translate(87,293)"/>
<path d="M0 0 C1.51400391 0.01740234 1.51400391 0.01740234 3.05859375 0.03515625 C4.07050781 0.04417969 5.08242188 0.05320312 6.125 0.0625 C7.29869141 0.07990234 7.29869141 0.07990234 8.49609375 0.09765625 C10.20916796 4.75925313 11.91805656 9.42235439 13.62304688 14.08691406 C14.20392269 15.67425143 14.78594964 17.26116802 15.36914062 18.84765625 C16.20614181 21.12521051 17.03902131 23.40423499 17.87109375 25.68359375 C18.1335791 26.3951059 18.39606445 27.10661804 18.66650391 27.83969116 C20.49609375 32.86991284 20.49609375 32.86991284 20.49609375 35.09765625 C17.19609375 35.09765625 13.89609375 35.09765625 10.49609375 35.09765625 C9.83609375 33.44765625 9.17609375 31.79765625 8.49609375 30.09765625 C4.53609375 29.76765625 0.57609375 29.43765625 -3.50390625 29.09765625 C-3.83390625 31.07765625 -4.16390625 33.05765625 -4.50390625 35.09765625 C-7.80390625 35.09765625 -11.10390625 35.09765625 -14.50390625 35.09765625 C-13.0258228 27.47300722 -10.61269523 20.38145526 -7.94140625 13.09765625 C-7.52955078 11.95425781 -7.11769531 10.81085938 -6.69335938 9.6328125 C-3.24006699 0.12636767 -3.24006699 0.12636767 0 0 Z M2.49609375 11.09765625 C1.99205607 12.38775268 1.49299449 13.67979414 0.99609375 14.97265625 C0.71765625 15.69195312 0.43921875 16.41125 0.15234375 17.15234375 C-0.61045643 19.07133086 -0.61045643 19.07133086 -0.50390625 21.09765625 C1.80609375 21.09765625 4.11609375 21.09765625 6.49609375 21.09765625 C5.50609375 17.79765625 4.51609375 14.49765625 3.49609375 11.09765625 C3.16609375 11.09765625 2.83609375 11.09765625 2.49609375 11.09765625 Z " fill="#EBC557" transform="translate(869.50390625,292.90234375)"/>
<path d="M0 0 C3.63 0 7.26 0 11 0 C12.55302205 4.17915906 14.10112402 8.36009803 15.64477539 12.54272461 C16.17013252 13.9641174 16.69680972 15.38502303 17.22485352 16.80541992 C17.98544823 18.85207206 18.74121291 20.90045333 19.49609375 22.94921875 C20.17949829 24.79519653 20.17949829 24.79519653 20.87670898 26.6784668 C21.81975548 29.4670231 22.51674853 32.10289542 23 35 C19.7 35 16.4 35 13 35 C12.67 33.02 12.34 31.04 12 29 C7.71 29 3.42 29 -1 29 C-1.33 30.98 -1.66 32.96 -2 35 C-5.3 35 -8.6 35 -12 35 C-9.91787123 26.88037164 -7.31571617 19.13427354 -4.3125 11.3125 C-3.89677734 10.21744141 -3.48105469 9.12238281 -3.05273438 7.99414062 C-2.03971612 5.32769027 -1.02050893 2.6635925 0 0 Z M5 10 C3.515 15.445 3.515 15.445 2 21 C4.31 21 6.62 21 9 21 C8.01 17.37 7.02 13.74 6 10 C5.67 10 5.34 10 5 10 Z " fill="#EBC557" transform="translate(495,293)"/>
<path d="M0 0 C2.97 0 5.94 0 9 0 C9.02505615 0.65073486 9.0501123 1.30146973 9.07592773 1.97192383 C9.19193702 4.91898046 9.31464115 7.8657213 9.4375 10.8125 C9.47681641 11.83666016 9.51613281 12.86082031 9.55664062 13.91601562 C9.61948242 15.39038086 9.61948242 15.39038086 9.68359375 16.89453125 C9.72025146 17.80050049 9.75690918 18.70646973 9.79467773 19.63989258 C9.9208205 22.15048782 9.9208205 22.15048782 11 25 C13.31 25 15.62 25 18 25 C19.25838557 22.48322887 19.20818973 20.58706712 19.31640625 17.7734375 C19.35830078 16.7421875 19.40019531 15.7109375 19.44335938 14.6484375 C19.48267578 13.56820313 19.52199219 12.48796875 19.5625 11.375 C19.60568359 10.28703125 19.64886719 9.1990625 19.69335938 8.078125 C19.7996453 5.3855483 19.90168057 2.69287747 20 0 C22.97 0 25.94 0 29 0 C29.08742801 4.20820145 29.14053641 8.41616776 29.1875 12.625 C29.21263672 13.81480469 29.23777344 15.00460937 29.26367188 16.23046875 C29.3590608 27.6135475 29.3590608 27.6135475 26 32 C21.33050042 35.77550992 16.89026123 35.49543071 11.109375 35.3515625 C6.80063892 34.86439385 5.05572995 34.05572995 2 31 C0.08166303 27.17366638 -0.23720578 24.07638667 -0.1953125 19.82421875 C-0.18886719 18.66728516 -0.18242188 17.51035156 -0.17578125 16.31835938 C-0.15902344 15.12017578 -0.14226563 13.92199219 -0.125 12.6875 C-0.11597656 11.46998047 -0.10695313 10.25246094 -0.09765625 8.99804688 C-0.07413037 5.99849726 -0.04125653 2.99934956 0 0 Z " fill="#EBC557" transform="translate(654,293)"/>
<path d="M0 0 C3.625 1.6875 3.625 1.6875 6 4 C6.875 6.75 6.875 6.75 7 9 C4.03 9.66 1.06 10.32 -2 11 C-2.33 10.34 -2.66 9.68 -3 9 C-4.65 9 -6.3 9 -8 9 C-7.67 9.99 -7.34 10.98 -7 12 C-4.30674785 13.17078565 -1.56670556 13.97475436 1.23828125 14.83984375 C4.31947129 16.13420505 5.9269471 17.39181018 8 20 C8.9297184 26.40472674 8.9297184 26.40472674 6.94140625 29.81640625 C5.17285592 31.99429464 3.52557048 33.73721476 1 35 C-11.28525756 36.03508385 -11.28525756 36.03508385 -15.6875 33.3125 C-18.06513929 30.93486071 -19.10569939 29.2194822 -20 26 C-17.03 25.01 -14.06 24.02 -11 23 C-10.34 23.99 -9.68 24.98 -9 26 C-5.91634129 26.2502157 -5.91634129 26.2502157 -3 26 C-2.67 25.34 -2.34 24.68 -2 24 C-2.90363281 23.68546875 -3.80726563 23.3709375 -4.73828125 23.046875 C-5.91777344 22.61890625 -7.09726562 22.1909375 -8.3125 21.75 C-9.48425781 21.33234375 -10.65601563 20.9146875 -11.86328125 20.484375 C-15.08121655 18.96156627 -16.35638392 18.10845287 -18 15 C-18.66064501 11.92249534 -18.60529744 9.08701693 -18 6 C-12.82837091 -0.53258411 -7.9425341 -0.80544008 0 0 Z " fill="#EBC557" transform="translate(562,293)"/>
<path d="M0 0 C3.50436082 1.32924031 5.3834084 2.3834084 8 5 C8 5.99 8 6.98 8 8 C5 10.1875 5 10.1875 2 12 C1.484375 11.67 0.96875 11.34 0.4375 11 C-2.84447094 9.65355038 -5.48432783 9.74431475 -9 10 C-12.42573253 11.77789851 -12.42573253 11.77789851 -12.8125 15.875 C-13.10896376 19.14203063 -13.05640468 21.29420437 -11 24 C-7.97562661 25.5121867 -5.33758466 25.17263369 -2 25 C0.35369807 24.11935073 0.35369807 24.11935073 2 23 C3.98 24.32 5.96 25.64 8 27 C7.62118922 29.74637817 7.22167713 30.80049058 5.125 32.6875 C-0.12249348 35.92859892 -6.03373645 35.56896818 -12 35 C-17.01791684 32.58064724 -20.49958655 29.0008269 -23 24 C-23.49328755 18.14524289 -23.85744288 12.81015719 -21.3125 7.4375 C-14.47609781 0.23156255 -9.74099888 -0.73756911 0 0 Z " fill="#EBC557" transform="translate(619,293)"/>
<path d="M0 0 C2.85910674 0.98361426 3.84015832 1.77844856 6 4 C6 5.32 6 6.64 6 8 C4.375 8.6875 4.375 8.6875 2 9 C1.0925 8.505 0.185 8.01 -0.75 7.5 C-5.20591105 5.44342567 -7.24512439 5.84962687 -12 7 C-14.93087207 9.25451698 -15.82814288 10.48442865 -17 14 C-17.36945059 18.98758297 -17.18227193 22.04959346 -14 26 C-10.97359247 28.5940636 -8.82325384 29.23362622 -4.9375 28.9375 C-1.20260274 28.29622519 0.70922805 27.11544985 3 24 C3.33 23.01 3.66 22.02 4 21 C0.7 21 -2.6 21 -6 21 C-6 19.35 -6 17.7 -6 16 C-1.05 16 3.9 16 9 16 C9 22.27 9 28.54 9 35 C7.68 35 6.36 35 5 35 C4.67 34.01 4.34 33.02 4 32 C3.20722656 32.72896484 3.20722656 32.72896484 2.3984375 33.47265625 C-2.19580633 36.39830664 -7.75315493 35.58153077 -13 35 C-17.972208 32.7319753 -20.3020298 29.69646664 -23 25 C-24.85804418 19.42586747 -24.80631384 14.05724432 -22.3125 8.6875 C-17.16754856 -0.50383674 -9.66317899 -0.85504493 0 0 Z " fill="#EBC557" transform="translate(230,293)"/>
<path d="M0 0 C2.31 0 4.62 0 7 0 C8.55553555 4.01741605 10.10352406 8.03763595 11.64477539 12.06054688 C12.16943416 13.42688952 12.6960982 14.792464 13.22485352 16.15722656 C13.98730588 18.12623645 14.74235226 20.09795425 15.49609375 22.0703125 C15.95169678 23.25383301 16.4072998 24.43735352 16.87670898 25.65673828 C17.92907095 28.7888932 18.56256566 31.73121205 19 35 C17.02 35 15.04 35 13 35 C11.74335022 32.09399739 11 30.20395416 11 27 C6.38 27.33 1.76 27.66 -3 28 C-4.485 31.465 -4.485 31.465 -6 35 C-7.98 35 -9.96 35 -12 35 C-11.38404218 30.39717094 -10.16273187 26.39974025 -8.49609375 22.0703125 C-8.13198143 21.11751907 -8.13198143 21.11751907 -7.76051331 20.14547729 C-6.99143407 18.13658597 -6.21461315 16.13079531 -5.4375 14.125 C-4.91159295 12.75540652 -4.38619716 11.38561661 -3.86132812 10.015625 C-2.58012222 6.67479163 -1.29196034 3.33669147 0 0 Z M3 8 C2.32942113 9.7902061 1.6636531 11.58221489 1 13.375 C0.62875 14.37273437 0.2575 15.37046875 -0.125 16.3984375 C-1.10626277 18.85848061 -1.10626277 18.85848061 -1 21 C1.97 21 4.94 21 8 21 C7.55005243 19.20620902 7.08975857 17.41501072 6.625 15.625 C6.36976563 14.62726563 6.11453125 13.62953125 5.8515625 12.6015625 C5.17595681 9.87458985 5.17595681 9.87458985 3 8 Z " fill="#EBC557" transform="translate(162,293)"/>
<path d="M0 0 C6.27 0 12.54 0 19 0 C19 1.98 19 3.96 19 6 C14.71 6 10.42 6 6 6 C6 8.64 6 11.28 6 14 C9.96 14 13.92 14 18 14 C18 15.98 18 17.96 18 20 C14.04 20 10.08 20 6 20 C6 22.97 6 25.94 6 29 C10.62 29 15.24 29 20 29 C20 30.98 20 32.96 20 35 C13.4 35 6.8 35 0 35 C0 23.45 0 11.9 0 0 Z " fill="#EBC557" transform="translate(269,293)"/>
<path d="M0 0 C2.97 0 5.94 0 9 0 C9 8.58 9 17.16 9 26 C13.29 26 17.58 26 22 26 C22 28.97 22 31.94 22 35 C14.74 35 7.48 35 0 35 C0 23.45 0 11.9 0 0 Z " fill="#EBC557" transform="translate(712,293)"/>
<path d="M0 0 C4.1444096 3.51144522 7.30040858 6.51566773 7.94921875 12.09375 C7.972444 17.6213606 7.97217049 21.85458631 4.6484375 26.5078125 C0.27139238 30.89681676 -3.41336515 32.65610056 -9.6015625 32.8203125 C-15.13366155 32.75454118 -17.97805966 31.89950858 -22.3515625 28.5078125 C-26.68631864 23.71676624 -27.58514618 18.80483914 -27.3515625 12.5078125 C-26.53864171 8.01329854 -24.94409642 4.70630364 -21.5390625 1.6328125 C-14.8897564 -2.80005823 -7.12825301 -4.5232436 0 0 Z M-21.7265625 8.2578125 C-23.71571483 12.23611716 -24.22213418 15.14624837 -23.3515625 19.5078125 C-21.32116749 23.35106019 -19.2334989 26.45901273 -15.3515625 28.5078125 C-10.88572258 29.51622797 -8.49923469 29.8903699 -4.1640625 28.4453125 C0.33089381 25.34878704 3.05744809 22.38507298 4.7109375 17.1328125 C4.63004892 12.44127467 3.27034001 9.3538483 0.6484375 5.5078125 C-2.5419947 2.51073983 -5.28948817 1.60800819 -9.6640625 1.1953125 C-15.32520234 1.67507011 -18.08355391 4.03959203 -21.7265625 8.2578125 Z " fill="#EBC557" transform="translate(1012.3515625,7.4921875)"/>
<path d="M0 0 C2.97 0 5.94 0 9 0 C9 11.55 9 23.1 9 35 C6.03 35 3.06 35 0 35 C0 23.45 0 11.9 0 0 Z " fill="#EBC557" transform="translate(761,293)"/>
<path d="M0 0 C1.5675 -0.061875 3.135 -0.12375 4.75 -0.1875 C6.07257812 -0.23970703 6.07257812 -0.23970703 7.421875 -0.29296875 C10.49987876 0.0568044 11.81075346 0.83597519 14 3 C14.51020728 7.08165827 14.31361802 8.52957297 12 12 C12.7425 13.175625 12.7425 13.175625 13.5 14.375 C15 17 15 17 15 19 C12.6875 18.8125 12.6875 18.8125 10 18 C8.375 15.5 8.375 15.5 7 13 C6.01 12.67 5.02 12.34 4 12 C4 14.31 4 16.62 4 19 C2.68 19 1.36 19 0 19 C0 12.73 0 6.46 0 0 Z M4 3 C4 4.98 4 6.96 4 9 C5.65 9 7.3 9 9 9 C9.33 7.35 9.66 5.7 10 4 C7.03 3.505 7.03 3.505 4 3 Z " fill="#EBC557" transform="translate(996,13)"/>
<path d="M0 0 C1.65 0 3.3 0 5 0 C5 11.55 5 23.1 5 35 C3.35 35 1.7 35 0 35 C0 23.45 0 11.9 0 0 Z " fill="#EBC557" transform="translate(52,293)"/>
</svg>
